PathFileType	4	(X/Y/Z)	12_2_87_p0_0-260_filt_butterworth.trc
DataRate	CameraRate	NumFrames	NumMarkers	Units	OrigDataRate	OrigDataStartFrame	OrigNumFrames
60.0	60.0	7	27	m	60.0	32	260
Frame#	Time	RHip			RKnee			RAnkle			RBigToe			RSmallToe			RHeel			LHip			LKnee			LAnkle			LBigToe			LSmallToe			LHeel			Neck			Head			Nose			RShoulder			RElbow			RWrist			RThumb			RIndex			RPinky			LShoulder			LElbow			LWrist			LThumb			LIndex			LPinky			
		X1	Y1	Z1	X2	Y2	Z2	X3	Y3	Z3	X4	Y4	Z4	X5	Y5	Z5	X6	Y6	Z6	X7	Y7	Z7	X8	Y8	Z8	X9	Y9	Z9	X10	Y10	Z10	X11	Y11	Z11	X12	Y12	Z12	X13	Y13	Z13	X14	Y14	Z14	X15	Y15	Z15	X16	Y16	Z16	X17	Y17	Z17	X18	Y18	Z18	X19	Y19	Z19	X20	Y20	Z20	X21	Y21	Z21	X22	Y22	Z22	X23	Y23	Z23	X24	Y24	Z24	X25	Y25	Z25	X26	Y26	Z26	X27	Y27	Z27	
32	0.5333333333333333	0.4193636800848153	0.5195995299109734	1.0903366907971817	0.46632741888712076	0.5376484223945269	1.529376514634504	0.5022857768800997	0.5865636742979555	1.9487728487595675	0.4767522377141975	0.3748745323797428	1.9280712305828211	0.5403172961284941	0.39307624316853446	1.9163611522473456	0.4810661113620066	0.6365085448480196	2.023716853355509	0.23384002367024898	0.4917794907557319	1.103373053937039	0.2622535081021652	0.5316275842112235	1.5490881363980793	0.3093287008364225	0.556759969685467	1.9480206707227685	0.315449523253495	0.3728714662737881	1.9290674853985728	0.25215742657731877	0.4064575860606451	1.9291887409674053	0.3285866153863631	0.5953338932965725	2.0007260527944286	0.2927515645152796	0.5130804979987795	0.5380653349801098	0.296372282504082	0.5219921373018076	0.28407808597917644	0.2979897302903312	0.40351556667594773	0.39244606439537605	0.4510478962077257	0.5360876327197589	0.6238379518715417	0.49504350506387385	0.4741971386562655	0.8434823223626695	0.38263709179254857	0.33172599148910775	0.9877959792934873	0.3189870424010123	0.23000162695865428	1.036515949591165	0.3124931680271936	0.23827108281098772	1.0526994991778926	0.34757883833434167	0.2316860023741507	1.05712355081939	0.13838061942970312	0.5338298440820507	0.629672691062415	0.13779425985129656	0.499804106622015	0.8482135369133776	0.25066132250723905	0.28878087329444596	0.8698753124705889	0.309174662753114	0.20056076335884257	0.8540719480719052	0.3045395526188349	0.17179668328412684	0.8637346076288102	0.2869769729915704	0.23213292400606528	0.9212722598075744
33	0.55	0.42028999937843625	0.5218816023095725	1.0898678731374596	0.46678919846294087	0.5374275167396451	1.528429973823278	0.5032788186036012	0.5823615096410447	1.9445641146576296	0.4766465095240802	0.37479406213309846	1.928022881074735	0.540257930789488	0.3928517069825946	1.9162573259514384	0.48088956624619605	0.6360636415221623	2.0233779190589236	0.2353028492665512	0.48574244784912424	1.0993073355886058	0.2623076400745614	0.5314622291494664	1.548330458538751	0.31090764876357185	0.5611304888384824	1.9498909233095572	0.3155500504508552	0.37398259132042777	1.9284117525506812	0.25212731146546175	0.4063082418524449	1.929214083688254	0.32941433635205836	0.5973011845262315	2.0024037752183874	0.2918447249193703	0.5127223588189143	0.5376809085400565	0.2966266496125437	0.5220156673270765	0.28410469256312915	0.29796627181484947	0.40347770077757633	0.3924604011363135	0.4506019881660945	0.5365272324276407	0.6239522764486137	0.4897169320374034	0.485949776031389	0.8464090167545147	0.36960665079068866	0.33421083642938965	0.9615742782445669	0.3110756566793482	0.22858548598005599	0.9971556187638696	0.28336397113248657	0.261912477651679	1.0208658228453138	0.3126100787217083	0.24625655420041156	1.0334801996679224	0.14000794204836703	0.534628172385033	0.6297001610894185	0.1369080955140427	0.4781109350586269	0.8493547199111532	0.26789271704621836	0.29498948425775756	0.8677451893968176	0.3408804833139007	0.20861837906011635	0.8390238716861957	0.33857509436503513	0.1775961656687835	0.8498106815823492	0.32311553512469815	0.23785073455425898	0.9144616753227747
34	0.5666666666666667	0.4220754757781605	0.5220921925572215	1.0875402306990147	0.4676432660167455	0.5372180273443219	1.5262459049903137	0.5043771734749114	0.5769997296085245	1.9433722730852674	0.4765313645012715	0.3746104705988027	1.9279092024021356	0.5401622212376841	0.3925144717883564	1.9160794266736922	0.4808385470392181	0.636074140220098	2.023565219517041	0.2366930866260874	0.4789560341932618	1.09339019698262	0.26214525049208187	0.53138599095565	1.546244169520184	0.3120221298723899	0.5644731566234649	1.9511602671178623	0.3154452321262994	0.3738866989172039	1.9276183114799097	0.2521626023315008	0.40576261762567445	1.92943929865219	0.3304905210264597	0.6007354720039999	2.0054970202458238	0.290616576479743	0.5114941304702666	0.5373689245466817	0.2959187332365385	0.5205555249209574	0.28408600729105077	0.297936121574226	0.4034050750331839	0.39245570930534857	0.44958383623764214	0.5365538740425525	0.6240277068730067	0.4845240678584679	0.50186812090782	0.8461799735326708	0.3647079408546807	0.34008138282570144	0.9316728614291285	0.32160586286382514	0.22288194849985543	0.9452524828655191	0.27198085315843273	0.29193446596972067	0.9884413022273578	0.29339709136765413	0.2665537390716005	1.0094817014866817	0.1415739263339991	0.5353690428645043	0.6296521212836254	0.1355581831134989	0.45946801525977865	0.8472990032530741	0.28339366419921125	0.30961562233651446	0.8680522913831525	0.3748686655122492	0.22101116237318666	0.8284791628700704	0.3705645931474418	0.18311698956486788	0.8367789080994712	0.3496643476022867	0.23793271138438987	0.9035560175986121
35	0.5833333333333334	0.42415693090099216	0.5186794184841799	1.0837763774394689	0.46870063516836014	0.5370419260039896	1.5238586802806666	0.5050803916199185	0.5730326556431677	1.9445275729255507	0.4764671614648828	0.3744215525835658	1.927798654809163	0.5401768554627924	0.3924703783123192	1.916074072603966	0.4808064691670637	0.6362667908475903	2.023798020164591	0.23807975292909944	0.4738034786859454	1.0881875724807824	0.26202973834697296	0.5313726651210453	1.5440949387990044	0.31235200762042703	0.5658567821965499	1.9527650265439995	0.3154301195963457	0.3733481568533606	1.9289123384500266	0.2524199387668361	0.40514512533979063	1.9303942060981822	0.3312124537255716	0.6037274544815397	2.009149516114965	0.2894795861381978	0.5088750509025874	0.5371402744421027	0.2944168842917575	0.5172336897291415	0.28401997422668834	0.297900444803546	0.403334825255294	0.3924392961208836	0.44821290952927106	0.5360086871759275	0.6240485908440867	0.481315277484379	0.5190751790732133	0.8425886537442588	0.3701343797017973	0.34716222341322933	0.9027732894155956	0.3398290454928429	0.21505511931133126	0.8909240096795331	0.28125863327794054	0.31856992947041707	0.9583619855592957	0.29802872916124784	0.2816557424830687	0.9887584242323292	0.14251082997126238	0.5358049976961232	0.6295020307141491	0.13384084865257187	0.4483176706023191	0.8426789808875937	0.29049200552576876	0.32476144199069923	0.8701187765665389	0.3995016700767144	0.2410382716726261	0.8251383938368038	0.3915606604944722	0.19373618527143244	0.828646815887411	0.36001691196945496	0.23675496270080576	0.8929616198710388
36	0.6	0.4258379192939258	0.5132602867211035	1.0808632764795822	0.4695774329747275	0.5368646201975935	1.522301882833172	0.5052843932102123	0.5715270030575351	1.9454019844853776	0.47648723943780036	0.3743698037652478	1.9277795360757102	0.5406282990295309	0.3936458751446113	1.9168213284396005	0.4806728183395599	0.6364777719049449	2.023467986091654	0.23920694928199013	0.47187136765522414	1.0861347381136153	0.2624669220210282	0.5314295026187459	1.54301211190453	0.312264916986941	0.5659702682570615	1.9550460664656466	0.3155250283376192	0.3725675754408393	1.9323426109084871	0.25306910581238706	0.40560296118383254	1.9324604893565582	0.33135115825470307	0.6051044976214168	2.012202003891476	0.28847832246253485	0.5053343920544947	0.5363689036406212	0.29285187783321415	0.5131461707358569	0.2839480779476072	0.2978523381955194	0.40333633094591054	0.39242696151417394	0.44707636239874937	0.5351543551086073	0.624036523025592	0.48041925215038156	0.533872320486343	0.8388708843168768	0.38206242589851636	0.3522372692098132	0.8811004854302316	0.3538716727654444	0.21075930848675425	0.8548544303467854	0.30123269598095237	0.32781620946051604	0.9329608235667592	0.3198940623140453	0.28961381440408884	0.9749170865046712	0.14284704535437162	0.5359660495509591	0.629352363160544	0.13222607668592476	0.44356178461049517	0.839678521838129	0.2837202301088043	0.33805369628061915	0.8760047897109051	0.4029504298061034	0.2735802454588595	0.8307009424115891	0.39385713858093313	0.21802649947934913	0.8304011160905352	0.35413552988098307	0.2526650767990081	0.8934210736178074
37	0.6166666666666667	0.4268249552030125	0.508753193682255	1.0802745701078331	0.47010152838871383	0.5365641294761775	1.5216028052938855	0.5052853959265192	0.5715196905822453	1.9447402273913572	0.4765624511295542	0.3744954122329158	1.9278717544161883	0.5417547051151731	0.39674339247416035	1.9187726166759096	0.4803205354794919	0.6366098410442691	2.022085012858363	0.2402580275717186	0.47210254218697295	1.0869831180458065	0.26374209848555874	0.5316011205559588	1.5429166323139558	0.3122151378785323	0.5657250790061724	1.9573865065498364	0.3156399593697166	0.3716938705555055	1.9356493574068456	0.2541373816431684	0.4081919603202697	1.93549057597679	0.33120622633471386	0.6052801201627855	2.0137968698130955	0.28736542872874016	0.502268937154931	0.534729749522211	0.2918159254085866	0.5101054966855458	0.28391867663236087	0.297778596056885	0.4034784439066766	0.3924459627337891	0.4465431529891476	0.5344302731049494	0.6240074303081158	0.4813980361420894	0.5403510110251706	0.8368969202506731	0.3945909743313096	0.3542147236003643	0.8695190663329636	0.3615006258996375	0.21919931565545894	0.8461699704904176	0.3183162278348905	0.3140645661965848	0.9150261408838535	0.3428139877669203	0.30711524228157694	0.9690219738446523	0.14310478978512048	0.5359753053747109	0.6293651163474973	0.13078870041686008	0.4422612987524822	0.8408756542907723	0.26562084397762226	0.35688767037651814	0.8867893968796121	0.3820210844440511	0.3168459317570529	0.8441913302572157	0.37603129853157846	0.265901317455771	0.8459323314742478	0.3354708857766294	0.3052986693673372	0.9142074028635924
38	0.6333333333333333	0.42718207879426	0.5066402143938175	1.0813777966310028	0.4703275921818172	0.5360760193966654	1.5213807158963235	0.5053438928363818	0.5717867434227065	1.9429749488323889	0.4766306902568973	0.3746748712239098	1.9280018013454303	0.5432424728517011	0.4009076276790555	1.9213983987687884	0.47974938581100557	0.6366313966651584	2.01976138243963	0.24143966784681714	0.47289675129727854	1.0880703785968775	0.26541175961169566	0.5319147993913735	1.5432855034973283	0.31227565349357284	0.5654957024132766	1.9586800668340087	0.31571353830034693	0.3710435912164468	1.9371969198993069	0.25533176344985875	0.41218838925014367	1.938641659874721	0.33112645170240157	0.6050768091811258	2.013622905720227	0.28617245325467	0.5005635195928066	0.5327869797732444	0.2914042910695991	0.5088304855671202	0.28393353106236063	0.2976938255313001	0.4037127079298411	0.39251030046632096	0.4464685328881912	0.5340572335077777	0.6239709899097773	0.484812508782368	0.5311266497389082	0.8353382941799998	0.4036309015756394	0.3583153607034696	0.866602209637845	0.36552043445756827	0.2510562839446984	0.8532516196001912	0.32650166680355514	0.3015354499142152	0.9051610764316871	0.3553693886808311	0.35355843207275406	0.9682434932025737	0.14388942507657795	0.5355794670331877	0.6295699246673947	0.1294553777561389	0.4429798062322079	0.8448685112549892	0.24598018056574267	0.38503151575669586	0.8999861372787592	0.3463062513978795	0.359561718751681	0.8614375526882975	0.34607983628919187	0.3321140898108478	0.8723799549146322	0.3110333411627971	0.3846464058163983	0.94919154322914
